<svg xmlns="http://www.w3.org/2000/svg" xmlns:xlink="http://www.w3.org/1999/xlink" width="500" zoomAndPan="magnify" viewBox="0 0 375 374.999991" height="500" preserveAspectRatio="xMidYMid meet" version="1.0"><defs><g/></defs><path fill="#ffffff" d="M 157.019531 188.011719 C 157.019531 231.445312 121.921875 266.5625 78.511719 266.5625 C 35.097656 266.5625 0 231.445312 0 188.011719 C 0 144.574219 35.097656 109.457031 78.511719 109.457031 C 121.921875 109.457031 157.019531 144.574219 157.019531 188.011719 Z M 296.488281 109.457031 C 253.078125 109.457031 217.980469 144.574219 217.980469 188.011719 C 217.980469 231.445312 253.078125 266.5625 296.488281 266.5625 C 339.902344 266.5625 375 231.445312 375 188.011719 C 375 144.574219 339.902344 109.457031 296.488281 109.457031 Z M 296.488281 109.457031 " fill-opacity="1" fill-rule="nonzero"/><path fill="#000000" d="M 222.597656 278.113281 C 198.121094 285.507812 171.335938 285.042969 147.320312 276.726562 C 142.703125 275.339844 139.46875 270.257812 140.855469 265.175781 C 142.242188 260.554688 147.320312 257.320312 152.402344 258.707031 C 173.644531 266.097656 196.273438 266.5625 217.980469 260.09375 C 229.527344 256.859375 234.144531 274.417969 222.597656 278.113281 Z M 153.785156 175.535156 C 153.785156 146.421875 130.695312 123.320312 101.601562 123.320312 C 72.96875 123.320312 49.414062 146.886719 49.414062 175.535156 C 49.414062 204.183594 72.96875 227.746094 101.601562 227.746094 C 130.695312 227.746094 153.785156 204.183594 153.785156 175.535156 Z M 320.503906 123.320312 C 291.871094 123.320312 268.320312 146.886719 268.320312 175.535156 C 268.320312 204.183594 291.871094 227.746094 320.503906 227.746094 C 349.136719 227.746094 372.691406 204.183594 372.691406 175.535156 C 372.691406 146.886719 349.136719 123.320312 320.503906 123.320312 Z M 110.375 45.230469 C 115.457031 45.691406 119.613281 40.609375 119.613281 35.988281 C 119.613281 30.90625 115.457031 27.210938 110.375 26.746094 C 83.589844 24.4375 56.804688 30.445312 32.789062 42.921875 C 22.167969 48.464844 31.402344 64.636719 42.027344 59.09375 C 63.269531 48.003906 86.824219 43.382812 110.375 45.230469 Z M 335.746094 59.09375 C 346.367188 64.636719 355.601562 48.925781 344.980469 42.921875 C 321.429688 30.445312 294.179688 24.4375 267.855469 26.746094 C 262.777344 27.210938 258.621094 30.90625 258.621094 35.988281 C 258.621094 40.609375 262.777344 45.691406 267.855469 45.230469 C 291.410156 43.382812 314.964844 48.003906 335.746094 59.09375 Z M 335.746094 59.09375 " fill-opacity="1" fill-rule="nonzero"/><g fill="#004aad" fill-opacity="1"><g transform="translate(26.989556, 358.737663)"><g><path d="M 4.125 0.359375 L 4.125 -43.4375 L 12.765625 -44.140625 L 12.765625 -26.25 L 21.015625 -26.25 L 21.015625 -43.4375 L 29.671875 -44.140625 L 29.671875 -0.359375 L 21.015625 0.359375 L 21.015625 -18.359375 L 12.765625 -18.359375 L 12.765625 -0.359375 Z M 4.125 0.359375 "/></g></g></g><g fill="#004aad" fill-opacity="1"><g transform="translate(60.767241, 358.737663)"><g><path d="M 4.125 0 L 4.125 -44.140625 L 26.546875 -44.140625 L 25.84375 -37.265625 L 12.765625 -37.265625 L 12.765625 -26.71875 L 22.078125 -26.71875 L 22.015625 -19.3125 L 12.765625 -19.3125 L 12.765625 -6.890625 L 27.015625 -6.890625 L 26.3125 0 Z M 4.125 0 "/></g></g></g><g fill="#004aad" fill-opacity="1"><g transform="translate(89.189942, 358.737663)"><g><path d="M 4.125 0 L 4.125 -43.4375 L 12.71875 -44.140625 L 12.71875 -6.890625 L 27.1875 -6.890625 L 26.3125 0 Z M 4.125 0 "/></g></g></g><g fill="#004aad" fill-opacity="1"><g transform="translate(116.788794, 358.737663)"><g><path d="M 4.125 0 L 4.125 -43.4375 L 12.71875 -44.140625 L 12.71875 -6.890625 L 27.1875 -6.890625 L 26.3125 0 Z M 4.125 0 "/></g></g></g><g fill="#004aad" fill-opacity="1"><g transform="translate(144.387646, 358.737663)"><g><path d="M 16.015625 0.828125 C 11.023438 0.828125 7.519531 -1.316406 5.5 -5.609375 C 3.476562 -9.910156 2.46875 -15.476562 2.46875 -22.3125 C 2.46875 -29.570312 3.546875 -35.160156 5.703125 -39.078125 C 7.867188 -43.003906 11.34375 -44.96875 16.125 -44.96875 C 25.269531 -44.96875 29.84375 -37.492188 29.84375 -22.546875 C 29.84375 -15.835938 28.8125 -10.265625 26.75 -5.828125 C 24.6875 -1.390625 21.109375 0.828125 16.015625 0.828125 Z M 16.125 -6.125 C 18.207031 -6.125 19.582031 -7.484375 20.25 -10.203125 C 20.914062 -12.929688 21.25 -17.066406 21.25 -22.609375 C 21.25 -27.035156 20.925781 -30.707031 20.28125 -33.625 C 19.632812 -36.550781 18.25 -38.015625 16.125 -38.015625 C 14.007812 -38.015625 12.632812 -36.5625 12 -33.65625 C 11.375 -30.757812 11.0625 -27.09375 11.0625 -22.65625 C 11.0625 -17.082031 11.382812 -12.929688 12.03125 -10.203125 C 12.6875 -7.484375 14.050781 -6.125 16.125 -6.125 Z M 16.125 -6.125 "/></g></g></g><g fill="#000000" fill-opacity="1"><g transform="translate(176.693076, 358.737663)"><g><path d="M 9.765625 0 L 0.765625 -43.796875 L 10.1875 -44.140625 L 14.828125 -17.71875 L 19.828125 -43.796875 L 26.90625 -44.140625 L 31.546875 -17.421875 L 37.140625 -43.796875 L 45.09375 -44.140625 L 35.609375 0 L 27.078125 0 L 22.421875 -26.953125 L 17.65625 0 Z M 9.765625 0 "/></g></g></g><g fill="#000000" fill-opacity="1"><g transform="translate(222.239996, 358.737663)"><g><path d="M 16.015625 0.828125 C 11.023438 0.828125 7.519531 -1.316406 5.5 -5.609375 C 3.476562 -9.910156 2.46875 -15.476562 2.46875 -22.3125 C 2.46875 -29.570312 3.546875 -35.160156 5.703125 -39.078125 C 7.867188 -43.003906 11.34375 -44.96875 16.125 -44.96875 C 25.269531 -44.96875 29.84375 -37.492188 29.84375 -22.546875 C 29.84375 -15.835938 28.8125 -10.265625 26.75 -5.828125 C 24.6875 -1.390625 21.109375 0.828125 16.015625 0.828125 Z M 16.125 -6.125 C 18.207031 -6.125 19.582031 -7.484375 20.25 -10.203125 C 20.914062 -12.929688 21.25 -17.066406 21.25 -22.609375 C 21.25 -27.035156 20.925781 -30.707031 20.28125 -33.625 C 19.632812 -36.550781 18.25 -38.015625 16.125 -38.015625 C 14.007812 -38.015625 12.632812 -36.5625 12 -33.65625 C 11.375 -30.757812 11.0625 -27.09375 11.0625 -22.65625 C 11.0625 -17.082031 11.382812 -12.929688 12.03125 -10.203125 C 12.6875 -7.484375 14.050781 -6.125 16.125 -6.125 Z M 16.125 -6.125 "/></g></g></g><g fill="#000000" fill-opacity="1"><g transform="translate(254.54653, 358.737663)"><g><path d="M 16.0625 -19.359375 L 12.71875 -19.359375 L 12.71875 -0.359375 L 4.125 0.359375 L 4.125 -43.796875 L 14.59375 -44.140625 C 19.65625 -44.140625 23.617188 -43.128906 26.484375 -41.109375 C 29.347656 -39.085938 30.78125 -36 30.78125 -31.84375 C 30.78125 -29.09375 30.238281 -26.832031 29.15625 -25.0625 C 28.082031 -23.300781 26.523438 -21.832031 24.484375 -20.65625 L 28.421875 -11.0625 L 32.4375 -1.53125 L 23.953125 0.765625 Z M 15.65625 -25.71875 C 17.695312 -25.71875 19.296875 -26.140625 20.453125 -26.984375 C 21.609375 -27.828125 22.1875 -29.425781 22.1875 -31.78125 C 22.1875 -35.4375 20.382812 -37.265625 16.78125 -37.265625 L 12.71875 -37.265625 L 12.71875 -25.71875 Z M 15.65625 -25.71875 "/></g></g></g><g fill="#000000" fill-opacity="1"><g transform="translate(287.794612, 358.737663)"><g><path d="M 4.125 0 L 4.125 -43.4375 L 12.71875 -44.140625 L 12.71875 -6.890625 L 27.1875 -6.890625 L 26.3125 0 Z M 4.125 0 "/></g></g></g><g fill="#000000" fill-opacity="1"><g transform="translate(315.393464, 358.737663)"><g><path d="M 4.125 -44.140625 L 13.1875 -44.140625 C 18.988281 -44.140625 23.320312 -42.296875 26.1875 -38.609375 C 29.050781 -34.921875 30.484375 -29.347656 30.484375 -21.890625 C 30.484375 -17.929688 29.941406 -14.300781 28.859375 -11 C 27.785156 -7.707031 26.070312 -5.050781 23.71875 -3.03125 C 21.363281 -1.007812 18.363281 0 14.71875 0 L 4.125 0 Z M 13.953125 -6.890625 C 16.929688 -6.890625 19 -8.171875 20.15625 -10.734375 C 21.3125 -13.304688 21.890625 -16.476562 21.890625 -20.25 L 21.890625 -22.25 C 21.890625 -24.957031 21.722656 -27.359375 21.390625 -29.453125 C 21.054688 -31.554688 20.289062 -33.382812 19.09375 -34.9375 C 17.894531 -36.488281 16.101562 -37.265625 13.71875 -37.265625 L 12.71875 -37.265625 L 12.71875 -6.890625 Z M 13.953125 -6.890625 "/></g></g></g></svg>